<svg height="512" viewBox="0 0 24 24" width="512" xmlns="http://www.w3.org/2000/svg"><g id="Layer_2" data-name="Layer 2"><path d="m12 23.5a11.5 11.5 0 1 1 11.5-11.5 11.5128 11.5128 0 0 1 -11.5 11.5zm0-22a10.5 10.5 0 1 0 10.5 10.5 10.512 10.512 0 0 0 -10.5-10.5z"/></g><g id="Layer_3" data-name="Layer 3"><path d="m12 19.5a.5.5 0 0 0 0-1 6.5153 6.5153 0 0 1 -6.5-6.5 6.5 6.5 0 0 1 13 0 .5.5 0 0 0 1 0 7.5 7.5 0 0 0 -15 0 7.5154 7.5154 0 0 0 7.5 7.5z"/><path d="m9 14h3a.5.5 0 0 0 0-1h-3a.5.5 0 0 0 0 1z"/><path d="m9 11h6a.5.5 0 0 0 0-1h-6a.5.5 0 0 0 0 1z"/><path d="m16 19.5a3.5 3.5 0 1 0 -3.5-3.5 3.5042 3.5042 0 0 0 3.5 3.5zm0-6a2.5 2.5 0 1 1 -2.5 2.5 2.503 2.503 0 0 1 2.5-2.5z"/><path d="m16 17.25a.4981.4981 0 0 0 .3535-.1465l1.5-1.5a.5.5 0 0 0 -.707-.707l-1.1465 1.1465-1.1465-1.1465a.5.5 0 0 0 -.707.707l1.5 1.5a.4981.4981 0 0 0 .3535.1465z"/></g></svg>