<svg id="svg5" height="64" viewBox="0 0 16.933327 16.933332" width="64" xmlns="http://www.w3.org/2000/svg" xmlns:svg="http://www.w3.org/2000/svg"><g id="layer1" transform="translate(-86.232 -7.971)"><path id="path2835" d="m89.672236 8.2353276c-.727447.0000002-1.32232.5969756-1.32232 1.3244669v.7229535l-1.818384 3.247347a.26459405.26460996 0 0 0 .107481.365352s.327054.169561.746162.340031c.297038.120818.636003.24682.964741.310058v8.772075c.000001.727491.594873 1.321883 1.32232 1.321883h10.054078c.727446 0 1.322316-.594392 1.322316-1.321883v-8.772591c.32799-.06328.66581-.188796.96268-.309542.4191-.17047.74771-.340031.74771-.340031a.26459405.26460996 0 0 0 .10749-.365352l-1.81788-3.246314v-.7239865c0-.7274913-.59487-1.3244667-1.322316-1.3244669h-4.521415-2.117056zm0 .5291667h3.415607 2.117056 4.521415c.441486.0000001.792676.3537914.792676.7953002v.5291665h-5.819973-5.819966v-.5291665c0-.4415088.351704-.7953001.793185-.7953002zm-.902216 1.8536337h.109031 1.585854v2.877343c-.126214.06147-.321719.153252-.558589.249598-.394001.160257-.883492.312642-1.160065.312642-.02912 0-.06105-.002-.09457-.0052a.26456759.2645835 0 0 0 -.01964-.0015c-.284709-.03155-.703052-.165878-1.047407-.305942-.254304-.103438-.328984-.146443-.451625-.206706zm2.224537 0h3.43886v2.877343c-.126215.06147-.32172.153252-.55859.249598-.394001.160257-.883492.312642-1.160066.312642-.276573 0-.767614-.152385-1.161616-.312642-.237673-.09667-.433051-.188679-.558588-.250114zm3.968511 0h3.438859v2.877343c-.126213.06147-.321719.153252-.558588.249598-.394002.160257-.883492.312642-1.160067.312642-.276573 0-.767613-.152385-1.161616-.312642-.237672-.09667-.433051-.188679-.558588-.250114zm3.968511 0h1.696951l1.6365 2.920235c-.12256.06023-.19856.103138-.45318.206706-.39401.160257-.88349.312642-1.16006.312642s-.767621-.152385-1.161622-.312642c-.237672-.09667-.433051-.188679-.558589-.250114zm-8.201073 3.334163c.08488.0432.273318.140882.62318.283187.419109.17047.921585.351399 1.361075.3514.439492 0 .940417-.18093 1.359525-.3514.350013-.142366.539981-.24005.624731-.283187.08488.0432.273318.140882.62318.283187.419108.17047.921585.351399 1.361075.3514.439492 0 .940417-.18093 1.359526-.3514.350013-.142366.539979-.24005.62473-.283187.08488.0432.273318.140882.623181.283187.377421.153514.822501.314981 1.228281.345715v8.736418c0 .441508-.35119.792716-.792676.792716h-10.054078c-.441481 0-.793185-.351208-.793185-.792716v-8.736418c.405526-.03069.849237-.192174 1.226724-.345715.350013-.142366.539981-.24005.624731-.283187zm3.968511 1.693437c-1.896379 0-3.438859 1.542574-3.438859 3.439066 0 1.896493 1.54248 3.439583 3.438859 3.439583s3.439377-1.54309 3.439377-3.439583c0-1.896492-1.542998-3.439066-3.439377-3.439066zm0 .527099c1.610413 0 2.910242 1.301458 2.910242 2.911967 0 1.610511-1.299829 2.910417-2.910242 2.910417s-2.909724-1.299906-2.909724-2.910417c0-1.610509 1.299311-2.911967 2.909724-2.911967zm.0031.5302c-.114754-.000231-.207774.05213-.270768.104904-.063.05277-.10712.110301-.147269.171049-.0803.121495-.143657.259116-.204627.396875-.06097.137758-.118049.275017-.168972.378788-.03536.07206-.07646.125117-.08836.144177-.02228.0055-.0851.02786-.164322.03876-.11473.01579-.26367.02667-.413903.04134-.150232.01467-.301011.03169-.441806.06976-.0704.01904-.139328.0426-.209278.08578s-.148277.114956-.183956.223759c-.03568.108803-.01482.213312.01602.289388.03084.07607.07231.135887.117814.192753.09101.113731.202717.215841.315208.316259.11249.100419.225812.197121.309006.277503.05743.05549.09482.110611.109547.128157-.0017.02259.000191.08964-.01395.168466-.0204.113731-.05541.258071-.08785.405143-.03244.147071-.06307.295449-.07027.4408-.0036.07268-.0025.145082.01705.224792s.06387.176954.15657.24443c.0927.06747.19853.08017.280586.07441.08205-.0058.151853-.02711.220128-.05271.13655-.05121.268942-.125842.399435-.201538.130494-.0757.257308-.15313.359646-.207223.07093-.03749.135539-.05608.156571-.0646.021.0086.08528.02786.156053.06563.102121.0545.228943.132551.35913.208773.130187.07622.26206.150816.398401.202571.06818.02588.13758.04714.219612.05323.08204.0061.18813-.0058.281102-.07286.09297-.0671.137732-.163765.157605-.243396.01987-.07963.0214-.152103.01809-.224792-.0066-.145379-.03689-.294116-.06873-.441317s-.06635-.291847-.08629-.40566c-.01381-.07879-.01184-.145282-.01344-.167948.01463-.0171.05258-.07257.110581-.128158.08352-.08005.197145-.175988.310039-.275952.112894-.09996.22477-.201863.316241-.315226.04574-.05668.0877-.116286.118849-.192237.03115-.07595.0523-.180442.01705-.289388-.03524-.108946-.113665-.18133-.18344-.224792-.06978-.04346-.138441-.06698-.20876-.0863-.140642-.03864-.291118-.05603-.441291-.07131-.150171-.01528-.298721-.02716-.413386-.04341-.07918-.01122-.142071-.0337-.164321-.03927-.01181-.01917-.05278-.07249-.08785-.144694-.05051-.103975-.107523-.241302-.167939-.379305-.06042-.138002-.122749-.27609-.202558-.397908-.03991-.06091-.08397-.118543-.146753-.171566-.06279-.05302-.155498-.105705-.270251-.105937zm-.001.617534c.04143.07121.08734.160011.135385.269751.05705.130313.114416.270697.176205.397908.06179.127212.105488.242101.248549.346232.143062.104132.265345.110346.405636.130225.14029.01988.292768.03156.434572.04599.119441.01215.218053.02888.298672.04651-.05509.0613-.125711.132387-.215478.211873-.106603.09439-.222843.192487-.325025.290422-.102181.09793-.198136.174703-.253199.342614-.05507.167912-.02337.28605.001.425297.0244.139248.06037.287332.09042.426331.02531.117004.03994.215735.04806.297656-.07546-.03332-.164711-.07791-.268185-.138493-.122933-.07197-.25279-.152423-.377731-.219108-.124943-.06668-.22751-.134002-.404603-.134358-.177092-.000357-.280425.06663-.405636.132808-.125209.06618-.255026.145563-.378248.217041-.103856.06024-.193594.10497-.269219.137976.0084-.08191.0238-.180645.04961-.297656.03063-.138877.06702-.286666.09197-.425814.02496-.139148.05749-.257165.0031-.425297s-.149863-.245303-.251649-.343648c-.101786-.09835-.21777-.197149-.323992-.291972-.08943-.07984-.159607-.150868-.214444-.21239.08068-.0173.179219-.03381.298672-.04547.141862-.01386.294202-.02461.434572-.04393.14037-.01931.262672-.02564.406153-.129191.14348-.103555.187796-.217721.250099-.344682.06231-.126962.120182-.267827.177756-.397909.04851-.109591.09521-.197673.136934-.268717z" stroke-linecap="round" stroke-linejoin="round"/></g></svg>