<svg id="Layer_1" viewBox="0 0 128 128" xmlns="http://www.w3.org/2000/svg"><g fill="none" stroke="#000" stroke-linejoin="round" stroke-miterlimit="10" stroke-width="4"><g><path d="m25 78h39"/><path d="m21 72s0-2-2-2-9 0-9 4 11 4 11 4z"/><path d=""/><path d=""/><path d="m103 78h-39"/><path d="m107 72s0-2 2-2 9 0 9 4-11 4-11 4z"/><path d="m49.8 54.2c-4.6.4-10.9 1.3-12.8 3.7-3.4 4.7-12 20.1-12 20.1s-6 0-6 5c0 0-4 1-4 4v25s-.1 8 7 8h7.8"/><path d="m38.2 120h67.8c7.1 0 7-8 7-8v-25c0-3-4-4-4-4 0-5-6-5-6-5s-8.4-15.3-11.9-19.9c-1.9-2.5-8.2-3.4-12.8-3.8"/><path d=""/><path d=""/><circle cx="64" cy="88" r="4"/><path d="m15 111h98"/><path d="m33 78 3 12-4 4h-10v-15"/><path d="m32 94s0 4 4 4h28"/><path d="m95 78-3 12 4 4h10v-15"/><path d="m96 94s0 4-4 4c-4.5 0-28 0-28 0"/><circle cx="34" cy="121" r="4"/><path d="m15 112v11s0 3 3 3 17 0 17 0 3 0 3-3 0-3 0-3"/><path d="m113 112v11s0 3-3 3-17 0-17 0-3 0-3-3 0-3 0-3"/></g><path d="m92 30c0-15.5-12.5-28-28-28s-28 12.5-28 28c0 13.2 9.2 24.3 21.5 27.2l6.5 9.8 6.5-9.8c12.3-2.9 21.5-14 21.5-27.2z"/><path d="m48 21 16 19 16-19"/></g></svg>